<?xml version="1.0" encoding="UTF-8" standalone="no"?>
<svg
   xmlns:dc="http://purl.org/dc/elements/1.1/"
   xmlns:cc="http://creativecommons.org/ns#"
   xmlns:rdf="http://www.w3.org/1999/02/22-rdf-syntax-ns#"
   xmlns:svg="http://www.w3.org/2000/svg"
   xmlns="http://www.w3.org/2000/svg"
   xmlns:sodipodi="http://sodipodi.sourceforge.net/DTD/sodipodi-0.dtd"
   xmlns:inkscape="http://www.inkscape.org/namespaces/inkscape"
   version="1.1"
   x="0px"
   y="0px"
   viewBox="0 0 100 94.598999"
   xml:space="preserve"
   id="svg10"
   sodipodi:docname="camera.svg"
   inkscape:version="1.0.2 (e86c870879, 2021-01-15)"
   width="100"
   height="94.598999"><metadata
     id="metadata16"><rdf:RDF><cc:Work
         rdf:about=""><dc:format>image/svg+xml</dc:format><dc:type
           rdf:resource="http://purl.org/dc/dcmitype/StillImage" /><dc:title></dc:title></cc:Work></rdf:RDF></metadata><defs
     id="defs14" /><sodipodi:namedview
     pagecolor="#ffffff"
     bordercolor="#666666"
     borderopacity="1"
     objecttolerance="10"
     gridtolerance="10"
     guidetolerance="10"
     inkscape:pageopacity="0"
     inkscape:pageshadow="2"
     inkscape:window-width="1600"
     inkscape:window-height="871"
     id="namedview12"
     showgrid="false"
     inkscape:zoom="5.72"
     inkscape:cx="50"
     inkscape:cy="48.513986"
     inkscape:window-x="1920"
     inkscape:window-y="0"
     inkscape:window-maximized="1"
     inkscape:current-layer="svg10"
     inkscape:document-rotation="0" /><g
     id="g4"
     style="fill:#ffffff"
     transform="translate(0,-2.7)"><path
       d="m 48.351,44.503 h -22.19 c -2.189,0 -3.97,1.781 -3.97,3.97 0,2.189 1.781,3.97 3.97,3.97 h 22.19 c 2.188,0 3.969,-1.782 3.969,-3.97 0,-2.188 -1.78,-3.97 -3.969,-3.97 z m 0,6.375 h -22.19 c -1.327,0 -2.406,-1.079 -2.406,-2.405 0,-1.327 1.079,-2.405 2.406,-2.405 h 22.19 c 1.326,0 2.405,1.078 2.405,2.405 0,1.326 -1.079,2.405 -2.405,2.405 z M 35.266,21.599 c 0,-4.412 -3.59,-8.002 -8.002,-8.002 -4.412,0 -8.001,3.59 -8.001,8.002 0,4.412 3.589,8.002 8.001,8.002 4.412,0 8.002,-3.59 8.002,-8.002 z m -14.44,0 c 0,-3.551 2.888,-6.438 6.438,-6.438 3.55,0 6.438,2.888 6.438,6.438 0,3.549 -2.888,6.438 -6.438,6.438 -3.55,0 -6.438,-2.889 -6.438,-6.438 z m 42.672,8.002 c 4.412,0 8.002,-3.59 8.002,-8.002 0,-4.412 -3.59,-8.002 -8.002,-8.002 -4.412,0 -8.002,3.59 -8.002,8.002 0,4.412 3.59,8.002 8.002,8.002 z m 0,-14.44 c 3.551,0 6.438,2.888 6.438,6.438 0,3.549 -2.888,6.438 -6.438,6.438 -3.55,0 -6.438,-2.889 -6.438,-6.438 10e-4,-3.551 2.888,-6.438 6.438,-6.438 z m -5.83,52.15 c -1.471,0 -2.668,1.195 -2.668,2.668 0,1.471 1.197,2.668 2.668,2.668 1.471,0 2.668,-1.197 2.668,-2.668 0,-1.473 -1.197,-2.668 -2.668,-2.668 z m 0,3.771 c -0.609,0 -1.104,-0.496 -1.104,-1.104 0,-0.609 0.495,-1.105 1.104,-1.105 0.609,0 1.104,0.496 1.104,1.105 0,0.608 -0.495,1.104 -1.104,1.104 z m 5.841,-3.771 c -1.472,0 -2.669,1.195 -2.669,2.668 0,1.471 1.197,2.668 2.669,2.668 1.472,0 2.669,-1.197 2.669,-2.668 0,-1.473 -1.198,-2.668 -2.669,-2.668 z m 0,3.771 c -0.608,0 -1.104,-0.496 -1.104,-1.104 0,-0.609 0.496,-1.105 1.104,-1.105 0.609,0 1.104,0.496 1.104,1.105 0,0.608 -0.495,1.104 -1.104,1.104 z m 5.841,-3.771 c -1.471,0 -2.668,1.195 -2.668,2.668 0,1.471 1.197,2.668 2.668,2.668 1.472,0 2.668,-1.197 2.668,-2.668 0,-1.473 -1.197,-2.668 -2.668,-2.668 z m 0,3.771 c -0.609,0 -1.104,-0.496 -1.104,-1.104 0,-0.609 0.495,-1.105 1.104,-1.105 0.609,0 1.104,0.496 1.104,1.105 0,0.608 -0.495,1.104 -1.104,1.104 z M 86.704,48.507 h -9.557 v -5.463 c 0,-2.267 -1.844,-4.11 -4.109,-4.11 H 71.021 C 77.709,36.021 82.397,29.347 82.397,21.599 82.397,11.177 73.92,2.7 63.498,2.7 54.946,2.7 47.705,8.41 45.381,16.217 43.058,8.41 35.816,2.7 27.264,2.7 16.843,2.7 8.365,11.178 8.365,21.599 c 0,7.879 4.847,14.646 11.716,17.479 -1.752,0.471 -3.048,2.068 -3.048,3.967 v 2.789 H 10.577 L 2.445,41.746 v 20.243 l 8.132,-4.088 h 6.456 v 15.67 c 0,2.266 1.844,4.109 4.11,4.109 h 3.096 L 16.034,92.174 H 12.31 C 11.878,90.328 10.223,88.947 8.247,88.947 H 4.176 C 1.873,88.947 0,90.82 0,93.123 c 0,2.303 1.873,4.176 4.176,4.176 h 4.071 c 2.093,0 3.827,-1.549 4.125,-3.561 h 4.117 c 0.282,0 0.542,-0.152 0.681,-0.398 l 8.866,-15.66 h 47.003 c 2.266,0 4.109,-1.844 4.109,-4.109 v -5.465 h 9.557 L 100,73.832 V 42.781 Z m -77.095,8.128 -5.6,2.816 V 44.282 l 5.6,2.815 z m 7.424,-0.299 h -5.86 v -8.938 h 5.86 z m -8.786,39.4 H 4.176 c -1.44,0 -2.612,-1.172 -2.612,-2.613 0,-1.439 1.171,-2.611 2.612,-2.611 h 4.071 c 1.44,0 2.612,1.172 2.612,2.611 0,1.441 -1.171,2.613 -2.612,2.613 z M 63.498,4.263 c 9.559,0 17.336,7.777 17.336,17.336 0,9.559 -7.777,17.335 -17.336,17.335 -9.559,0 -17.335,-7.776 -17.335,-17.335 0,-9.559 7.776,-17.336 17.335,-17.336 z M 55.975,38.934 H 34.787 c 5.075,-2.211 8.997,-6.587 10.594,-11.954 1.598,5.367 5.519,9.743 10.594,11.954 z M 9.929,21.599 c 0,-9.559 7.776,-17.336 17.335,-17.336 9.559,0 17.335,7.777 17.335,17.336 0,9.559 -7.776,17.335 -17.335,17.335 -9.559,0 -17.335,-7.776 -17.335,-17.335 z M 75.584,73.57 c 0,1.402 -1.143,2.545 -2.546,2.545 H 21.143 c -1.404,0 -2.546,-1.143 -2.546,-2.545 V 43.044 c 0,-1.404 1.143,-2.547 2.546,-2.547 h 51.896 c 1.403,0 2.546,1.143 2.546,2.547 V 73.57 Z m 10.5,-7.027 H 77.147 V 50.071 h 8.937 z M 98.436,71.457 87.648,66.809 V 49.804 l 10.788,-4.647 z"
       id="path2"
       style="fill:#ffffff" /></g></svg>
