<?xml version="1.0" encoding="UTF-8" standalone="no"?>
<svg
   xmlns:dc="http://purl.org/dc/elements/1.1/"
   xmlns:cc="http://creativecommons.org/ns#"
   xmlns:rdf="http://www.w3.org/1999/02/22-rdf-syntax-ns#"
   xmlns:svg="http://www.w3.org/2000/svg"
   xmlns="http://www.w3.org/2000/svg"
   xmlns:sodipodi="http://sodipodi.sourceforge.net/DTD/sodipodi-0.dtd"
   xmlns:inkscape="http://www.inkscape.org/namespaces/inkscape"
   version="1.1"
   x="0px"
   y="0px"
   viewBox="0 0 62.5 90"
   xml:space="preserve"
   id="svg8"
   sodipodi:docname="film.svg"
   inkscape:version="1.0.2 (e86c870879, 2021-01-15)"
   width="62.5"
   height="90"><metadata
     id="metadata14"><rdf:RDF><cc:Work
         rdf:about=""><dc:format>image/svg+xml</dc:format><dc:type
           rdf:resource="http://purl.org/dc/dcmitype/StillImage" /><dc:title></dc:title></cc:Work></rdf:RDF></metadata><defs
     id="defs12" /><sodipodi:namedview
     pagecolor="#ffffff"
     bordercolor="#666666"
     borderopacity="1"
     objecttolerance="10"
     gridtolerance="10"
     guidetolerance="10"
     inkscape:pageopacity="0"
     inkscape:pageshadow="2"
     inkscape:window-width="1920"
     inkscape:window-height="1015"
     id="namedview10"
     showgrid="false"
     inkscape:zoom="5.72"
     inkscape:cx="50"
     inkscape:cy="62.5"
     inkscape:window-x="0"
     inkscape:window-y="0"
     inkscape:window-maximized="1"
     inkscape:current-layer="svg8"
     inkscape:document-rotation="0" /><path
     d="M 60,0 H 2.5 C 1.1,0 0,1.1 0,2.5 v 85 C 0,88.9 1.1,90 2.5,90 H 60 c 1.4,0 2.5,-1.1 2.5,-2.5 V 2.5 C 62.5,1.1 61.3,0 60,0 Z M 10,85 H 5 v -5 h 5 z m 0,-7.5 H 5 v -5 h 5 z M 10,70 H 5 v -5 h 5 z m 0,-7.5 H 5 v -5 h 5 z M 10,55 H 5 v -5 h 5 z m 0,-7.5 H 5 v -5 h 5 z M 10,40 H 5 v -5 h 5 z m 0,-7.5 H 5 v -5 h 5 z M 10,25 H 5 v -5 h 5 z m 0,-7.5 H 5 v -5 h 5 z M 10,9.9999997 H 5 v -5 h 5 z M 15,85 H 12.5 V 4.9999997 H 15 Z m 30,0 H 17.5 V 66.3 H 45 Z M 45,63.8 H 17.5 V 46.3 H 45 Z m 0,-20 H 17.5 V 26.3 H 45 Z m 0,-20 H 17.5 V 4.9999997 H 45 Z M 50,85 H 47.5 V 4.9999997 H 50 Z m 7.5,0 h -5 v -5 h 5 z m 0,-7.5 h -5 v -5 h 5 z m 0,-7.5 h -5 v -5 h 5 z m 0,-7.5 h -5 v -5 h 5 z m 0,-7.5 h -5 v -5 h 5 z m 0,-7.5 h -5 v -5 h 5 z m 0,-7.5 h -5 v -5 h 5 z m 0,-7.5 h -5 v -5 h 5 z m 0,-7.5 h -5 v -5 h 5 z m 0,-7.5 h -5 v -5 h 5 z m 0,-7.5000003 h -5 v -5 h 5 z"
     id="path2"
     style="fill:#ffffff" /></svg>
