<svg height="512pt" viewBox="0 -68 512.001 512" width="512pt" xmlns="http://www.w3.org/2000/svg"><path d="m170.019531 69.65625c0 34.328125-27.824219 62.152344-62.152343 62.152344-34.328126 0-62.152344-27.824219-62.152344-62.152344s27.824218-62.152344 62.152344-62.152344c34.328124 0 62.152343 27.824219 62.152343 62.152344zm0 0" fill="#bebfc0"/><path d="m139.804688 96.609375c-32.523438 0-58.890626-26.367187-58.890626-58.890625 0-9.628906 2.324219-18.703125 6.417969-26.726562-24.234375 8.480468-41.617187 31.535156-41.617187 58.664062 0 34.328125 27.824218 62.15625 62.152344 62.15625 27.128906 0 50.183593-17.386719 58.664062-41.621094-8.019531 4.09375-17.097656 6.417969-26.726562 6.417969zm0 0" fill="#a9aaab"/><path d="m132.367188 69.65625c0 13.53125-10.96875 24.5-24.5 24.5s-24.5-10.96875-24.5-24.5 10.96875-24.5 24.5-24.5 24.5 10.96875 24.5 24.5zm0 0" fill="#495059"/><path d="m85.316406 60.070312c-1.253906 2.945313-1.949218 6.183594-1.949218 9.585938 0 13.53125 10.96875 24.5 24.5 24.5 3.402343 0 6.640624-.695312 9.585937-1.949219-14.542969-5.972656-26.164063-17.589843-32.136719-32.136719zm0 0" fill="#41464f"/><path d="m343.570312 69.65625c0 34.328125-27.828124 62.152344-62.152343 62.152344-34.328125 0-62.15625-27.824219-62.15625-62.152344s27.828125-62.152344 62.15625-62.152344c34.324219 0 62.152343 27.824219 62.152343 62.152344zm0 0" fill="#bebfc0"/><path d="m313.355469 96.609375c-32.523438 0-58.890625-26.367187-58.890625-58.890625 0-9.628906 2.324218-18.703125 6.417968-26.726562-24.230468 8.480468-41.617187 31.535156-41.617187 58.664062 0 34.328125 27.824219 62.15625 62.152344 62.15625 27.128906 0 50.183593-17.386719 58.667969-41.621094-8.027344 4.09375-17.105469 6.417969-26.730469 6.417969zm0 0" fill="#a9aaab"/><path d="m305.917969 69.65625c0 13.53125-10.96875 24.5-24.5 24.5s-24.5-10.96875-24.5-24.5 10.96875-24.5 24.5-24.5 24.5 10.96875 24.5 24.5zm0 0" fill="#495059"/><path d="m258.867188 60.070312c-1.253907 2.945313-1.949219 6.183594-1.949219 9.585938 0 13.53125 10.96875 24.5 24.5 24.5 3.402343 0 6.640625-.695312 9.585937-1.949219-14.542968-5.972656-26.164062-17.589843-32.136718-32.136719zm0 0" fill="#41464f"/><path d="m468.96875 158.359375-87.183594 36.050781v93.476563l87.183594 36.046875c16.925781 7 35.53125-5.441406 35.53125-23.753906v-118.0625c0-18.316407-18.605469-30.753907-35.53125-23.757813zm0 0" fill="#495059"/><path d="m410.324219 182.609375-28.539063 11.800781v93.476563l60.921875 25.1875c-26.097656-32.964844-31.335937-82.4375-32.382812-130.464844zm0 0" fill="#41464f"/><path d="m468.96875 158.359375-12.128906 5.015625v155.546875l12.128906 5.015625c16.925781 6.996094 35.53125-5.445312 35.53125-23.757812v-118.0625c0-18.316407-18.605469-30.753907-35.53125-23.757813zm0 0" fill="#bebfc0"/><path d="m331.1875 354.578125c-90.097656 18.414063-182.992188 18.414063-273.089844 0-29.449218-6.019531-50.597656-31.925781-50.597656-61.980469v-100.082031c0-30.054687 21.148438-55.964844 50.597656-61.980469 90.097656-18.414062 182.992188-18.414062 273.089844 0 29.449219 6.015625 50.597656 31.925782 50.597656 61.980469v100.082031c0 30.054688-21.148437 55.960938-50.597656 61.980469zm0 0" fill="#eeeeed"/><path d="m331.1875 354.578125c10.800781-2.207031 20.476562-7.097656 28.414062-13.878906-174.808593.65625-207.097656-142.394531-201.066406-223.007813-33.671875 1.785156-67.246094 6.058594-100.4375 12.84375-29.449218 6.015625-50.597656 31.925782-50.597656 61.980469v100.082031c0 30.054688 21.148438 55.960938 50.597656 61.980469 90.097656 18.414063 182.992188 18.414063 273.089844 0zm0 0" fill="#dfdfdd"/><path d="m150.996094 212.925781v59.261719c0 14 14.738281 23.109375 27.261718 16.847656l56.289063-28.148437c15.105469-7.550781 15.105469-29.105469 0-36.660157l-56.289063-28.144531c-12.523437-6.261719-27.261718 2.84375-27.261718 16.84375zm0 0" fill="#eb8d9a"/><path d="m178.257812 289.03125 25.148438-12.574219c-20.035156-24.433593-32.164062-53.242187-38.808594-81.625-7.59375 2.226563-13.601562 9.160157-13.601562 18.09375v59.257813c0 14.003906 14.738281 23.109375 27.261718 16.847656zm0 0" fill="#d67c88"/><path d="m107.867188 37.65625c-17.644532 0-32 14.355469-32 32s14.355468 32 32 32c17.644531 0 32-14.355469 32-32s-14.355469-32-32-32zm0 49c-9.375 0-17-7.625-17-17 0-9.371094 7.625-16.996094 17-16.996094 9.371093 0 17 7.625 17 16.996094 0 9.375-7.628907 17-17 17zm61.949218 211.890625c4.019532 0 8.046875-.929687 11.792969-2.804687l56.292969-28.148438c9.542968-4.769531 15.472656-14.367188 15.472656-25.039062 0-10.671876-5.929688-20.265626-15.472656-25.039063l-56.292969-28.144531c-8.222656-4.113282-17.800781-3.679688-25.621094 1.152344-7.820312 4.835937-12.492187 13.210937-12.492187 22.402343v59.257813c0 9.195312 4.671875 17.570312 12.492187 22.402344 4.257813 2.632812 9.03125 3.960937 13.828125 3.960937zm-11.320312-85.621094c0-4.015625 1.960937-7.527343 5.378906-9.640625 1.855469-1.148437 3.890625-1.726562 5.9375-1.726562 1.71875 0 3.449219.410156 5.089844 1.230468l56.289062 28.144532c4.5 2.25 7.1875 6.59375 7.1875 11.621094 0 5.03125-2.6875 9.375-7.1875 11.625l-56.289062 28.144531c-3.59375 1.796875-7.609375 1.617187-11.027344-.496094-3.414062-2.109375-5.375-5.625-5.375-9.644531v-59.257813zm122.921875-175.269531c-17.644531 0-32 14.355469-32 32s14.355469 32 32 32 32-14.355469 32-32-14.355469-32-32-32zm0 49c-9.375 0-17-7.625-17-17 0-9.371094 7.625-16.996094 17-16.996094 9.371093 0 17 7.625 17 16.996094 0 9.375-7.628907 17-17 17zm223.082031 114.386719c-4.144531 0-7.5 3.359375-7.5 7.5v91.636719c0 6.183593-2.945312 11.699218-8.085938 15.136718-5.140624 3.433594-11.363281 4.050782-17.078124 1.6875l-7.496094-3.097656v-145.515625l7.496094-3.101563c4.707031-1.945312 9.832031-1.867187 14.433593.21875 4.617188 2.097657 8.179688 6.003907 9.777344 10.714844 1.324219 3.921875 5.585937 6.027344 9.507813 4.699219 3.921874-1.328125 6.027343-5.585937 4.699218-9.507813-2.921875-8.628906-9.402344-15.757812-17.785156-19.566406-8.417969-3.820312-17.78125-3.96875-26.363281-.417968l-12.132813 5.015624c-.03125.011719-.058594.023438-.085937.035157l-65.195313 26.953125c-3.847656-29.546875-26.214844-54.160156-56-60.25-1.824218-.371094-3.652344-.726563-5.476562-1.082032 14.890625-13.046874 23.855468-32.109374 23.855468-52.445312 0-38.410156-31.246093-69.65625-69.652343-69.65625s-69.652344 31.246094-69.652344 69.65625c0 14.628906 4.507813 28.550781 12.730469 40.152344-19.898438-.871094-39.804688-.871094-59.703125 0 8.21875-11.601563 12.730469-25.523438 12.730469-40.152344 0-38.410156-31.246094-69.65625-69.65625-69.65625-38.40625 0-69.652344 31.246094-69.652344 69.65625 0 20.332031 8.96875 39.398438 23.859375 52.441406-1.828125.359375-3.652344.710938-5.476563 1.085938-32.796875 6.703125-56.597656 35.863281-56.597656 69.332031v100.082031c0 21.972656 9.945312 42.324219 27.289062 55.835938 3.265626 2.546875 7.980469 1.964844 10.523438-1.304688 2.546875-3.265625 1.960938-7.980468-1.304688-10.527344-13.667968-10.648437-21.507812-26.6875-21.507812-44.003906v-100.082031c0-26.375 18.757812-49.351563 44.597656-54.632813 7.753906-1.585937 15.519532-3.023437 23.289063-4.332031.058593-.007812.113281-.019531.171875-.03125 20.929687-3.523437 41.914062-6.050781 62.925781-7.585937.59375.027344 1.191406-.011719 1.78125-.125 31.230469-2.195313 62.515625-2.195313 93.746094 0 .59375.113281 1.191406.15625 1.792969.125 21.007812 1.535156 41.992187 4.0625 62.917968 7.585937.058594.011719.117188.023438.175782.03125 7.769531 1.308594 15.535156 2.746094 23.289062 4.332031 25.839844 5.28125 44.597656 28.257813 44.597656 54.632813v1.808594.066406 93.515625.0625 4.628906c0 26.375-18.757812 49.351563-44.597656 54.632813-87.761719 17.933593-176.828125 18.296875-264.730469 1.070312-4.070312-.796875-8.007812 1.855469-8.804687 5.917969-.796875 4.066406 1.855468 8.007812 5.917968 8.804688 44.019532 8.625 88.308594 12.9375 132.601563 12.933593 46.125 0 92.253906-4.675781 138.019531-14.03125 30.6875-6.269531 53.5-32.210937 56.300782-62.945312l64.890624 26.832031c.03125.011719.0625.023438.09375.039062l12.128907 5.015626c4.09375 1.691406 8.40625 2.527343 12.699219 2.527343 6.472656 0 12.894531-1.898437 18.445312-5.609375 9.238281-6.175781 14.75-16.496094 14.75-27.605468v-91.636719c0-4.140625-3.355469-7.5-7.5-7.5zm-361.015625-89.972657c-20.195313 1.515626-40.367187 3.933594-60.484375 7.246094-18.167969-9.304687-29.785156-28.160156-29.785156-48.660156 0-30.136719 24.515625-54.652344 54.652344-54.652344 30.136718 0 54.652343 24.515625 54.652343 54.652344 0 16.039062-6.914062 30.996094-19.035156 41.414062zm162.800781 7.246094c-20.121094-3.3125-40.292968-5.730468-60.484375-7.246094-12.121093-10.417968-19.039062-25.375-19.039062-41.414062 0-30.136719 24.519531-54.652344 54.652343-54.652344 30.140626 0 54.65625 24.519532 54.65625 54.652344 0 20.5-11.621093 39.355469-29.785156 48.660156zm143.054688 189.386719-60.054688-24.832031v-83.445313l60.054688-24.832031zm0 0"/></svg>